# xmcd
#
# Track frame offsets:
#	150
#	10572
#	26503
#	36601
#	42952
#	66607
#	77764
#	95287
#	103118
#	119599
#	132181
#
# Disc length: 1972 seconds
#
# Revision: 2
# Processed by: cddbd v1.5.1PL0 Copyright (c) Steve Scherf et al.
# Submitted via: MusicWizard 7.2.0
#
DISCID=9207b20b
DTITLE=Bad Livers - Dust On The Bible
DYEAR=1900
DGENRE=Bluegrass
TTITLE0=Workin' On A Building
TTITLE1=Farther Along
TTITLE2=I'm Using My Bible For A Roadmap
TTITLE3=Gathering Flowers
TTITLE4=Medley
TTITLE5=Keep Your Lamp Trimmed And Burning
TTITLE6=Precious Memories
TTITLE7=Crying Holy Unto The Lord
TTITLE8=Jesus Is On The Mainline
TTITLE9=Further Along
TTITLE10=How Dark My Shadow's Grown
EXTD=
EXTT0=
EXTT1=
EXTT2=
EXTT3=
EXTT4=I Saw the Light\nWill the Circle Be Unbroken\nI'll Fly Away\n
EXTT5=
EXTT6=
EXTT7=
EXTT8=
EXTT9=
EXTT10=
PLAYORDER=
